<?xml version="1.0" encoding="utf-8"?>
<!-- Generator: Adobe Illustrator 24.1.2, SVG Export Plug-In . SVG Version: 6.00 Build 0)  -->
<svg version="1.1" id="Layer_1" xmlns="http://www.w3.org/2000/svg" xmlns:xlink="http://www.w3.org/1999/xlink" x="0px" y="0px"
	 viewBox="0 0 844 400" style="enable-background:new 0 0 844 400;" xml:space="preserve">
<style type="text/css">
	.st0{fill:#1A1A1A;}
</style>
<path class="st0" d="M399.04,225.75c0-1.78,0-3.56,0-5.34c0-50.99,0.05-101.97-0.1-152.96c-0.01-4.08,0.85-5.33,5.1-5.23
	c13.16,0.3,26.32,0.2,39.49,0.05c3.09-0.04,4.26,0.53,4.26,4.01c-0.1,89.64-0.1,179.28-0.02,268.93c0,3.16-0.67,4.26-4.06,4.21
	c-14.16-0.2-28.33-0.22-42.49,0.02c-3.41,0.06-4.91-1.09-6.26-4.07c-25.65-56.68-51.41-113.32-77.16-169.96
	c-0.66-1.46-1.4-2.88-2.94-4.25c0,1.72,0,3.43,0,5.15c0,55.98-0.05,111.97,0.1,167.95c0.01,4.05-0.78,5.3-5.06,5.19
	c-13.16-0.32-26.32-0.23-39.49-0.04c-3.26,0.05-4.12-0.84-4.12-4.11c0.09-89.64,0.09-179.28,0-268.93c0-3.27,0.85-4.15,4.11-4.12
	c16.66,0.17,33.32,0.16,49.99,0c3.16-0.03,4.47,1.06,5.75,3.92c23.48,52.38,47.11,104.7,70.71,157.03c0.4,0.88,0.82,1.76,1.24,2.64
	C398.42,225.81,398.73,225.78,399.04,225.75z"/>
<path class="st0" d="M538.04,200.82c0-44.49,0.07-88.98-0.11-133.48c-0.02-4.26,1.16-5.14,5.23-5.1
	c25.49,0.23,50.99-0.08,76.48,0.29c15.24,0.22,30.1,2.94,44.14,9.32C683,80.6,695.2,95.45,701.8,115.19
	c4.36,13.03,6.98,26.44,7.05,40.17c0.17,31.32,0.39,62.66-0.19,93.97c-0.31,16.91-4,33.42-11.69,48.67
	c-11.22,22.25-30.29,33.71-54.11,38.42c-10,1.98-20.07,2.94-30.26,2.93c-23.33-0.03-46.66-0.1-69.99,0.09
	c-3.72,0.03-4.68-0.86-4.67-4.64C538.09,290.14,538.04,245.48,538.04,200.82z M591.36,200.86c0,28.99-0.02,57.98,0.04,86.97
	c0,2.02-1.21,4.9,2.95,4.73c7.82-0.32,15.69,0.12,23.47-0.55c19.58-1.69,32.05-13.14,35.95-32.41c1.59-7.87,2.12-15.83,2.11-23.85
	c-0.03-21.16-0.01-42.32-0.01-63.48c0-8.5-0.03-16.98-0.98-25.45c-2.67-23.84-16.58-36.77-40.59-37.48
	c-5.33-0.16-10.66-0.13-15.99-0.15c-6.95-0.02-6.95-0.01-6.95,6.7C591.36,144.21,591.36,172.53,591.36,200.86z"/>
<path class="st0" d="M43.88,200.85c0-44.48,0.06-88.97-0.1-133.45c-0.01-4.08,0.84-5.19,5.07-5.17c45.15,0.18,90.3,0.17,135.45,0.01
	c4.11-0.01,5.29,0.88,5.18,5.11c-0.32,12.49-0.24,24.99-0.03,37.48c0.06,3.47-0.87,4.45-4.39,4.43
	c-27.82-0.15-55.65,0.01-83.47-0.19c-4.03-0.03-4.85,1.16-4.81,4.94c0.2,18.16,0.18,36.32,0.01,54.48
	c-0.03,3.44,0.79,4.48,4.35,4.45c20.32-0.18,40.65,0.02,60.97-0.18c3.97-0.04,5.47,0.7,5.36,5.07c-0.32,12.32-0.32,24.66,0,36.98
	c0.11,4.19-1.39,4.8-5.06,4.77c-20.32-0.16-40.65,0.03-60.97-0.17c-3.73-0.04-4.7,0.88-4.67,4.64c0.2,21.49,0.18,42.98,0.01,64.47
	c-0.03,3.36,0.99,4.06,4.16,4.05c29.15-0.12,58.31,0,87.47-0.16c3.67-0.02,4.8,0.77,4.72,4.62c-0.27,12.66-0.23,25.32-0.02,37.98
	c0.06,3.44-0.76,4.42-4.32,4.41c-46.81-0.13-93.63-0.14-140.44,0.01c-3.79,0.01-4.59-0.96-4.58-4.64
	C43.92,290.15,43.88,245.5,43.88,200.85z"/>
<path class="st0" d="M802.88,312.32c0,7.98-0.08,15.97,0.05,23.95c0.04,2.32-0.53,3.14-3.01,3.12c-16.13-0.11-32.26-0.14-48.39,0.02
	c-2.91,0.03-3.18-1.17-3.17-3.5c0.07-15.8,0.09-31.6-0.02-47.4c-0.02-2.75,0.7-3.74,3.6-3.72c15.8,0.13,31.6,0.13,47.4-0.01
	c2.83-0.02,3.67,0.75,3.61,3.59C802.76,296.36,802.88,304.34,802.88,312.32z"/>
</svg>
